<svg width="15" height="15" viewBox="0 0 15 15" fill="none" xmlns="http://www.w3.org/2000/svg">
<path d="M7.5 6.66667C5.41667 6.66667 3.64583 6.34028 2.1875 5.6875C0.729167 5.03472 0 4.25 0 3.33333C0 2.41667 0.729167 1.63194 2.1875 0.979167C3.64583 0.326389 5.41667 0 7.5 0C9.58333 0 11.3542 0.326389 12.8125 0.979167C14.2708 1.63194 15 2.41667 15 3.33333C15 4.25 14.2708 5.03472 12.8125 5.6875C11.3542 6.34028 9.58333 6.66667 7.5 6.66667ZM7.5 10.8333C5.41667 10.8333 3.64583 10.5069 2.1875 9.85417C0.729167 9.20139 0 8.41667 0 7.5V5.41667C0 6.02778 0.284722 6.54528 0.854167 6.96917C1.42361 7.3925 2.10417 7.73611 2.89583 8C3.6875 8.26389 4.51056 8.45472 5.365 8.5725C6.21889 8.69083 6.93056 8.75 7.5 8.75C8.06944 8.75 8.78111 8.69083 9.635 8.5725C10.4894 8.45472 11.3125 8.26389 12.1042 8C12.8958 7.73611 13.5764 7.3925 14.1458 6.96917C14.7153 6.54528 15 6.02778 15 5.41667V7.5C15 8.41667 14.2708 9.20139 12.8125 9.85417C11.3542 10.5069 9.58333 10.8333 7.5 10.8333ZM7.5 15C5.41667 15 3.64583 14.6736 2.1875 14.0208C0.729167 13.3681 0 12.5833 0 11.6667V9.58333C0 10.1944 0.284722 10.7119 0.854167 11.1358C1.42361 11.5592 2.10417 11.9028 2.89583 12.1667C3.6875 12.4306 4.51056 12.6217 5.365 12.74C6.21889 12.8578 6.93056 12.9167 7.5 12.9167C8.06944 12.9167 8.78111 12.8578 9.635 12.74C10.4894 12.6217 11.3125 12.4306 12.1042 12.1667C12.8958 11.9028 13.5764 11.5592 14.1458 11.1358C14.7153 10.7119 15 10.1944 15 9.58333V11.6667C15 12.5833 14.2708 13.3681 12.8125 14.0208C11.3542 14.6736 9.58333 15 7.5 15Z" fill="white"/>
</svg>
