<svg width="15" height="15" viewBox="0 0 15 15" fill="none" xmlns="http://www.w3.org/2000/svg">
<path d="M6.34278 10.8414C4.40917 10.6021 3.04687 9.18152 3.04687 7.34222C3.04687 6.59455 3.31055 5.78705 3.75 5.24872C3.55958 4.75525 3.58887 3.7085 3.80859 3.27484C4.39453 3.20008 5.18555 3.51409 5.6543 3.94775C6.21093 3.76831 6.79687 3.67859 7.51465 3.67859C8.23243 3.67859 8.81836 3.76831 9.34571 3.9328C9.79981 3.51409 10.6055 3.20008 11.1914 3.27484C11.3965 3.67859 11.4258 4.72534 11.2354 5.23377C11.7041 5.802 11.9531 6.56464 11.9531 7.34222C11.9531 9.18152 10.5908 10.5722 8.62792 10.8264C9.12597 11.1554 9.46289 11.8732 9.46289 12.6956V14.2508C9.46289 14.6994 9.8291 14.9536 10.2686 14.7742C12.9199 13.7424 15 11.0358 15 7.68616C15 3.45428 11.6309 3.72873e-08 7.48535 0C3.33984 -3.72873e-08 3.65265e-08 3.45428 0 7.68616C-2.86532e-08 11.0059 2.06542 13.7573 4.84863 14.7891C5.24414 14.9387 5.625 14.6695 5.625 14.2658V13.0695C5.41993 13.1592 5.15625 13.219 4.92187 13.219C3.95507 13.219 3.38379 12.6807 2.97363 11.6788C2.8125 11.275 2.63672 11.0358 2.29981 10.9909C2.12403 10.976 2.06542 10.9012 2.06542 10.8115C2.06542 10.632 2.3584 10.4974 2.65137 10.4974C3.07618 10.4974 3.44238 10.7666 3.82324 11.3199C4.11621 11.7535 4.42382 11.9479 4.79004 11.9479C5.15625 11.9479 5.39062 11.8134 5.72754 11.4694C5.97657 11.2152 6.16699 10.9909 6.34278 10.8414Z" fill="white"/>
</svg>
