<svg width="30" height="30" viewBox="0 0 30 30" fill="none" xmlns="http://www.w3.org/2000/svg">
<mask id="mask0_69_717" style="mask-type:luminance" maskUnits="userSpaceOnUse" x="0" y="0" width="30" height="30">
<path d="M30 0H0V30H30V0Z" fill="white"/>
</mask>
<g mask="url(#mask0_69_717)">
<path d="M12.6856 21.6828C8.81835 21.2042 6.09374 18.363 6.09374 14.6844C6.09374 13.1891 6.62109 11.5741 7.5 10.4974C7.11915 9.5105 7.17775 7.417 7.61718 6.54969C8.78905 6.40016 10.3711 7.02819 11.3086 7.8955C12.4219 7.53663 13.5937 7.35719 15.0293 7.35719C16.4649 7.35719 17.6367 7.53663 18.6914 7.86559C19.5996 7.02819 21.211 6.40016 22.3828 6.54969C22.793 7.35719 22.8516 9.45069 22.4707 10.4675C23.4082 11.604 23.9062 13.1293 23.9062 14.6844C23.9062 18.363 21.1817 21.1444 17.2558 21.6528C18.2519 22.3108 18.9258 23.7463 18.9258 25.3913V28.5016C18.9258 29.3988 19.6582 29.9072 20.5371 29.5483C25.8399 27.4848 30 22.0715 30 15.3723C30 6.90856 23.2617 7.45747e-08 14.9707 0C6.67968 -7.45747e-08 7.30531e-08 6.90856 0 15.3723C-5.73064e-08 22.0117 4.13085 27.5147 9.69726 29.5783C10.4883 29.8773 11.25 29.339 11.25 28.5315V26.1389C10.8399 26.3184 10.3125 26.438 9.84374 26.438C7.91014 26.438 6.76757 25.3613 5.94726 23.3575C5.625 22.5501 5.27345 22.0715 4.59961 21.9818C4.24806 21.9519 4.13085 21.8024 4.13085 21.6229C4.13085 21.264 4.7168 20.9949 5.30275 20.9949C6.15236 20.9949 6.88476 21.5332 7.64648 22.6398C8.23243 23.5071 8.84764 23.8959 9.58007 23.8959C10.3125 23.8959 10.7812 23.6267 11.4551 22.9388C11.9531 22.4304 12.334 21.9818 12.6856 21.6828Z" fill="#222222"/>
</g>
</svg>
