<svg width="18" height="20" viewBox="0 0 18 20" fill="none" xmlns="http://www.w3.org/2000/svg">
<g clip-path="url(#clip0_107_476)">
<path d="M17.7432 0.140965C17.6617 0.0509513 17.5445 0 17.4222 0H0.435113C0.31283 0 0.195643 0.0509513 0.114121 0.140965C0.0309005 0.230978 -0.00986036 0.351563 0.00202833 0.473845L1.53226 17.6155C1.54754 17.7955 1.67322 17.945 1.84646 17.9959L8.80807 19.983C8.84544 19.9949 8.8862 20 8.92696 20C8.96772 20 9.00678 19.9949 9.04585 19.983L16.0126 17.9959C16.1858 17.945 16.3098 17.7955 16.3268 17.6155L17.8553 0.473845C17.8672 0.351563 17.8264 0.230978 17.7432 0.140965ZM14.0798 6.05129H5.90047L6.09578 8.26427H13.8828L13.2986 14.8047L8.92526 16.126L8.8828 16.1124L4.56045 14.803L4.32438 12.1382H6.44225L6.53396 13.1726L8.95074 13.6787L11.3234 13.1726L11.5764 10.3736H4.16643L3.59068 3.93682H14.2683L14.0798 6.05129Z" fill="black"/>
</g>
<defs>
<clipPath id="clip0_107_476">
<rect width="17.8573" height="20" fill="white"/>
</clipPath>
</defs>
</svg>
