<svg width="20" height="20" viewBox="0 0 20 20" fill="none" xmlns="http://www.w3.org/2000/svg">
<g clip-path="url(#clip0_109_545)">
<path d="M18.7314 0H1.27046C0.569197 0 0 0.569197 0 1.27046V18.7295C0 19.4308 0.569197 20 1.27046 20H18.7295C19.4308 20 20 19.4308 20 18.7314V1.27046C20 0.569197 19.4308 0 18.7314 0ZM10.9524 15.3255C10.9524 17.2284 9.83631 18.0952 8.20685 18.0952C6.73363 18.0952 5.6715 17.1075 5.2381 16.1905L6.73549 15.2846C7.02381 15.7961 7.4628 16.1905 8.09524 16.1905C8.69978 16.1905 9.04762 15.9542 9.04762 15.0353V9.04762H10.9524V15.3255ZM15.0837 18.0952C13.3966 18.0952 12.4386 17.2452 11.9048 16.1905L13.3333 15.2381C13.7221 15.8743 14.1462 16.4825 15.0428 16.4825C15.7961 16.4825 16.1905 16.1068 16.1905 15.5859C16.1905 14.9647 15.7812 14.7433 14.9535 14.3806L14.4996 14.1853C13.1882 13.6272 12.3158 12.9278 12.3158 11.4472C12.3158 10.0856 13.3557 9.04762 14.9777 9.04762C16.1328 9.04762 16.9624 9.4494 17.5614 10.5022L16.1477 11.4118C15.8352 10.8519 15.5004 10.6324 14.9777 10.6324C14.4457 10.6324 14.109 10.971 14.109 11.4118C14.109 11.9568 14.4457 12.1763 15.2251 12.5149L15.6789 12.7102C17.2247 13.3705 18.0952 14.0458 18.0952 15.5636C18.0952 17.1987 16.8099 18.0952 15.0837 18.0952Z" fill="black"/>
</g>
<defs>
<clipPath id="clip0_109_545">
<rect width="20" height="20" fill="white"/>
</clipPath>
</defs>
</svg>
