<svg width="22" height="20" viewBox="0 0 22 20" fill="none" xmlns="http://www.w3.org/2000/svg">
<g clip-path="url(#clip0_102_274)">
<path d="M11 12.0035C12.083 12.0035 12.9609 11.1064 12.9609 9.99991C12.9609 8.89337 12.083 7.99634 11 7.99634C9.91703 7.99634 9.03912 8.89337 9.03912 9.99991C9.03912 11.1064 9.91703 12.0035 11 12.0035Z" fill="#222222"/>
<path d="M11 14.1048C16.811 14.1048 21.5217 12.267 21.5217 9.99989C21.5217 7.73283 16.811 5.89502 11 5.89502C5.18901 5.89502 0.478264 7.73283 0.478264 9.99989C0.478264 12.267 5.18901 14.1048 11 14.1048Z" stroke="#222222"/>
<path d="M7.52084 12.0524C10.4263 17.1944 14.3394 20.444 16.2609 19.3104C18.1824 18.1769 17.3847 13.0895 14.4792 7.94748C11.5737 2.80542 7.66062 -0.44413 5.73913 0.6894C3.81764 1.82293 4.61534 6.9103 7.52084 12.0524Z" stroke="#222222"/>
<path d="M7.52084 7.94759C4.61534 13.0896 3.81765 18.177 5.73913 19.3105C7.66062 20.4441 11.5737 17.1945 14.4792 12.0525C17.3847 6.9104 18.1824 1.82304 16.2609 0.689507C14.3394 -0.444023 10.4263 2.80553 7.52084 7.94759Z" stroke="#222222"/>
</g>
<defs>
<clipPath id="clip0_102_274">
<rect width="22" height="20" fill="white"/>
</clipPath>
</defs>
</svg>
