<svg width="15" height="17" viewBox="0 0 15 17" fill="none" xmlns="http://www.w3.org/2000/svg">
<g clip-path="url(#clip0_227_926)">
<path d="M7.50842 8.87856C7.32925 8.87856 7.16128 8.85035 7.00451 8.79391C6.84773 8.73836 6.70216 8.6434 6.56778 8.50903L0.38639 2.32764C0.14003 2.08128 0.0114758 1.7731 0.000725557 1.40312C-0.0109205 1.03402 0.117634 0.715101 0.38639 0.446345C0.63275 0.199985 0.946299 0.0768052 1.32704 0.0768052C1.70777 0.0768052 2.02132 0.199985 2.26768 0.446345L7.50842 5.65349L12.7492 0.446345C12.9955 0.199985 13.3033 0.0709821 13.6723 0.059336C14.0423 0.0485858 14.3617 0.177589 14.6305 0.446345C14.8768 0.692705 15 1.00625 15 1.38699C15 1.76773 14.8768 2.08128 14.6305 2.32764L8.44907 8.50903C8.31469 8.6434 8.16912 8.73836 8.01234 8.79391C7.85557 8.85035 7.6876 8.87856 7.50842 8.87856ZM7.50842 16.9412C7.32925 16.9412 7.16128 16.913 7.00451 16.8566C6.84773 16.801 6.70216 16.7061 6.56778 16.5717L0.38639 10.3903C0.14003 10.144 0.0114758 9.83578 0.000725557 9.4658C-0.0109205 9.0967 0.117634 8.77778 0.38639 8.50903C0.63275 8.26267 0.946299 8.13948 1.32704 8.13948C1.70777 8.13948 2.02132 8.26267 2.26768 8.50903L7.50842 13.7162L12.7492 8.50903C12.9955 8.26267 13.3033 8.13366 13.6723 8.12202C14.0423 8.11127 14.3617 8.24027 14.6305 8.50903C14.8768 8.75538 15 9.06893 15 9.44967C15 9.83041 14.8768 10.144 14.6305 10.3903L8.44907 16.5717C8.31469 16.7061 8.16912 16.801 8.01234 16.8566C7.85557 16.913 7.6876 16.9412 7.50842 16.9412Z" fill="#4C4C4C"/>
</g>
<defs>
<clipPath id="clip0_227_926">
<rect width="15" height="17"/>
</clipPath>
</defs>
</svg>
