<svg width="20" height="12" viewBox="0 0 20 12" fill="none" xmlns="http://www.w3.org/2000/svg">
<g clip-path="url(#clip0_109_550)">
<path d="M9.99999 0C7.33268 0 5.6656 1.33324 4.99877 3.99972C5.99902 2.66648 7.16597 2.16678 8.49963 2.49977C9.26064 2.68982 9.80453 3.24204 10.4068 3.85302C11.387 4.84785 12.5219 5.99979 15.0012 5.99979C17.6685 5.99979 19.3356 4.66655 20.0024 1.99965C19.0022 3.33289 17.8352 3.83302 16.5016 3.50002C15.741 3.30997 15.1971 2.75775 14.5949 2.14677C13.6142 1.15153 12.4789 0 9.99999 0ZM4.99877 5.99979C2.33146 5.99979 0.664387 7.33303 -0.00244141 9.99993C0.997802 8.66669 2.16475 8.16657 3.49841 8.49998C4.25901 8.69045 4.80289 9.24225 5.40512 9.85281C6.38578 10.8481 7.52105 12 9.99999 12C12.6673 12 14.3344 10.6668 15.0012 7.99986C14.001 9.3331 12.834 9.83322 11.5004 9.49981C10.7393 9.30976 10.1955 8.75755 9.59322 8.14698C8.61299 7.15174 7.47813 5.99979 4.99877 5.99979Z" fill="black"/>
</g>
<defs>
<clipPath id="clip0_109_550">
<rect width="20" height="12" fill="white"/>
</clipPath>
</defs>
</svg>
